<svg version="1.0" xmlns="http://www.w3.org/2000/svg" width="600.000000pt" height="560.000000pt" viewBox="0 0 600.000000 560.000000" preserveAspectRatio="xMidYMid meet" style="width: 447px; height: auto;"> <g transform="translate(0.000000,560.000000) scale(0.100000,-0.100000)" fill="#000000" stroke="none"> <path d="M2946 4561 c-5 -7 -211 -137 -241 -151 -5 -3 -59 -34 -118 -70 -59 -36 -124 -75 -144 -86 -51 -31 -50 -27 -47 -217 4 -315 2 -291 27 -303 12 -6 82 -46 155 -89 l132 -78 0 -203 c0 -226 -2 -221 65 -171 24 17 72 52 106 77 34 24 68 51 76 58 10 11 13 115 13 553 0 296 3 539 6 539 5 0 319 -186 417 -247 l37 -23 0 -159 c0 -180 6 -166 -100 -226 -36 -20 -99 -58 -140 -84 l-75 -48 -3 -199 -2 -199 54 -37 c30 -21 57 -38 60 -38 3 0 6 92 6 204 l0 204 43 27 c23 14 94 56 157 93 l115 67 0 235 0 235 -285 172 c-281 170 -304 181 -314 164z m-234 -501 c7 -11 18 -20 25 -20 18 0 16 -35 -2 -54 -9 -8 -15 -26 -14 -38 5 -60 -1 -88 -19 -88 -20 0 -43 38 -41 68 0 10 3 12 6 5 2 -7 13 -13 24 -13 22 0 24 15 5 49 -8 14 -12 30 -9 37 2 7 -3 23 -11 36 -9 14 -13 28 -9 31 12 13 33 7 45 -13z" class="" stroke-width="1"></path> <path d="M2135 3674 c-49 -36 -151 -107 -225 -158 l-135 -93 -3 -471 c-1 -260 2 -472 6 -472 5 0 49 30 98 67 49 37 141 105 204 150 63 45 123 87 133 95 17 12 18 40 19 396 0 210 5 385 9 388 4 2 60 -26 123 -63 l115 -68 1 -227 c0 -126 3 -228 6 -228 3 0 32 19 65 41 l59 42 0 223 c0 123 -4 224 -8 224 -5 0 -40 20 -78 44 -189 119 -283 176 -291 176 -4 0 -48 -30 -98 -66z"></path> <path d="M3585 3659 c-60 -38 -117 -72 -125 -76 -8 -4 -39 -22 -67 -41 -63 -42 -65 -48 -61 -232 l3 -135 60 0 60 0 3 135 3 136 116 67 c65 37 122 66 128 63 8 -3 10 -35 7 -105 -2 -55 -1 -227 3 -383 l7 -283 131 -95 c72 -52 168 -123 214 -157 45 -35 88 -63 93 -63 8 0 11 141 9 465 l-2 465 -26 20 c-14 11 -57 41 -96 67 -75 49 -162 109 -261 180 -76 53 -67 55 -199 -28z m345 -504 c0 -3 -2 -5 -5 -5 -3 0 -5 2 -5 5 0 3 2 5 5 5 3 0 5 -2 5 -5z"></path> <path d="M2904 3177 c-33 -24 -178 -128 -324 -232 -146 -103 -299 -214 -340 -245 -41 -31 -160 -116 -265 -189 -104 -74 -197 -139 -205 -147 -12 -12 10 -14 150 -14 l165 0 105 75 c58 42 148 105 200 142 117 82 353 253 477 345 51 37 97 68 103 68 6 0 50 -29 98 -64 137 -102 165 -122 651 -468 l136 -97 163 -1 c89 0 162 3 162 8 0 4 -17 19 -38 33 -20 14 -146 103 -279 198 l-243 173 0 164 0 165 -107 -3 -108 -3 2 -77 c2 -91 -3 -94 -68 -45 -86 66 -360 257 -369 257 -4 0 -34 -19 -66 -43z"></path> <path d="M2847 2723 c-4 -3 -7 -28 -7 -55 l0 -48 50 0 50 0 0 55 0 55 -43 0 c-24 0 -47 -3 -50 -7z"></path> <path d="M2992 2678 l3 -53 53 -3 52 -3 0 55 0 56 -56 0 -55 0 3 -52z"></path> <path d="M2835 2559 c-4 -6 -4 -30 0 -55 l6 -44 48 0 c59 0 57 -2 53 59 l-4 51 -48 0 c-27 0 -52 -5 -55 -11z"></path> <path d="M3008 2559 c-13 -7 -18 -23 -18 -54 l0 -45 55 0 55 0 0 55 0 55 -37 0 c-21 0 -46 -5 -55 -11z"></path> <path d="M830 1761 l0 -551 326 0 c514 0 662 45 879 264 107 108 140 161 290 464 33 66 65 121 70 121 6 1 56 -90 112 -202 l102 -202 -167 -5 -167 -5 -62 -90 c-34 -49 -61 -94 -60 -98 1 -4 128 -9 282 -10 l280 -2 60 -117 59 -118 148 0 c81 0 148 1 148 3 0 2 -27 52 -60 110 -32 59 -116 216 -186 350 -69 133 -141 267 -159 297 -18 30 -67 119 -110 198 l-77 142 -143 0 c-102 0 -145 -4 -153 -12 -5 -7 -68 -125 -139 -263 -192 -369 -227 -421 -337 -499 -127 -91 -232 -116 -483 -116 l-182 0 -3 328 c-2 180 0 333 3 340 7 17 294 17 371 1 79 -17 159 -78 199 -151 45 -83 50 -240 12 -319 -38 -76 -22 -74 72 12 81 75 195 256 195 311 0 73 -112 215 -219 277 -138 80 -162 84 -553 89 l-348 4 0 -551z"></path> <path d="M2989 2303 c0 -4 0 -152 1 -328 l1 -319 56 -106 c31 -58 82 -156 115 -217 71 -136 50 -128 307 -120 377 12 571 105 772 372 20 28 85 146 143 263 59 116 112 212 120 212 7 0 26 -28 43 -62 17 -35 61 -123 98 -197 36 -73 64 -140 61 -148 -5 -12 -33 -14 -148 -13 -79 1 -150 1 -159 1 -9 -1 -41 -39 -72 -86 -54 -81 -66 -106 -49 -104 4 1 129 1 277 0 l270 -1 60 -118 60 -117 138 -3 c99 -2 137 1 137 9 0 15 -50 113 -145 285 -42 75 -92 166 -111 203 -74 142 -137 259 -178 331 -24 41 -64 116 -89 166 -54 108 -41 101 -193 103 -141 2 -149 0 -173 -48 -10 -20 -54 -109 -99 -198 -45 -89 -82 -164 -82 -167 0 -3 -13 -24 -29 -48 -15 -24 -39 -63 -53 -88 -94 -169 -198 -258 -373 -315 -72 -23 -92 -25 -261 -25 -101 0 -184 3 -185 8 -5 67 1 665 7 670 5 4 92 5 194 2 217 -6 258 -20 329 -110 60 -76 75 -132 68 -262 -5 -105 -5 -108 14 -98 29 16 105 116 143 190 19 36 41 79 50 95 61 115 -129 312 -355 371 -71 18 -708 34 -710 17z"></path> <path d="M1990 1325 c-8 -8 -52 -36 -97 -63 l-82 -49 66 -6 c85 -6 84 -7 116 62 34 75 33 93 -3 56z"></path> <path d="M4085 1310 c-6 -10 -64 -51 -107 -76 -17 -10 -13 -13 32 -19 28 -4 53 -5 54 -4 22 24 54 109 42 109 -8 0 -18 -5 -21 -10z"></path> <path d="M2282 1069 c-261 -51 -239 -412 27 -436 59 -6 149 14 184 39 19 14 34 120 23 164 -6 21 -12 24 -51 24 l-45 0 0 -64 c0 -73 -4 -76 -78 -76 -80 0 -142 59 -142 135 0 108 108 165 218 115 l44 -20 28 23 c16 12 29 25 29 28 2 17 -52 50 -104 64 -65 16 -70 17 -133 4z"></path> <path d="M2622 853 l3 -218 35 -1 c56 -2 60 3 60 67 l0 59 49 0 50 0 35 -59 c40 -65 49 -71 107 -71 50 0 50 14 -1 76 -48 58 -49 73 -11 101 36 27 52 87 39 145 -20 91 -75 117 -246 118 l-122 0 2 -217z m253 112 c53 -52 17 -117 -72 -129 -78 -10 -83 -6 -83 80 l0 74 65 0 c57 0 69 -3 90 -25z"></path> <path d="M3089 1063 c-1 -4 -1 -74 -1 -155 0 -134 2 -151 23 -188 64 -114 279 -117 344 -5 24 40 25 50 25 198 l0 157 -50 0 -50 0 0 -140 c0 -187 -11 -210 -101 -210 -81 0 -104 60 -97 251 l3 94 -47 3 c-27 2 -48 -1 -49 -5z"></path> <path d="M3588 880 c-1 -104 -2 -202 -2 -217 -1 -27 1 -28 49 -28 l50 0 3 63 3 62 76 0 c140 0 211 61 200 174 -9 99 -81 136 -264 136 l-113 0 -2 -190z m257 85 c59 -58 15 -124 -85 -128 l-65 -2 -3 78 -3 77 66 0 c57 0 69 -3 90 -25z"></path> <path d="M1755 900 c-66 -4 -295 -12 -510 -19 -214 -7 -396 -15 -404 -17 -51 -16 57 -25 469 -39 256 -8 504 -18 553 -21 l87 -7 0 57 0 56 -37 -2 c-21 -1 -92 -5 -158 -8z"></path> <path d="M4122 858 l3 -53 50 0 c126 2 1060 37 1064 41 16 16 -42 23 -244 28 -247 7 -618 22 -778 32 l-98 6 3 -54z"></path> <path d="M5260 855 c0 -3 2 -5 5 -5 3 0 5 2 5 5 0 3 -2 5 -5 5 -3 0 -5 -2 -5 -5z"></path> <path d="M800 825 c0 -3 2 -5 5 -5 3 0 5 2 5 5 0 3 -2 5 -5 5 -3 0 -5 -2 -5 -5z"></path> </g> </svg>