<?xml version="1.0" standalone="no"?>
<!DOCTYPE svg PUBLIC "-//W3C//DTD SVG 20010904//EN"
 "http://www.w3.org/TR/2001/REC-SVG-20010904/DTD/svg10.dtd">
<svg version="1.0" xmlns="http://www.w3.org/2000/svg"
 width="750.000000pt" height="750.000000pt" viewBox="0 0 750.000000 750.000000"
 preserveAspectRatio="xMidYMid meet">

<g transform="translate(0.000000,750.000000) scale(0.100000,-0.100000)"
fill="#000000" stroke="none">
<path d="M7000 6600 c-432 -294 -386 -263 -2350 -1595 -850 -576 -1637 -1111
-1750 -1187 -219 -149 -974 -662 -1305 -886 -110 -74 -400 -271 -645 -437
-245 -166 -524 -356 -620 -421 -185 -126 -250 -172 -213 -155 74 36 1008 497
1679 829 436 216 798 392 807 392 8 0 66 -18 128 -40 63 -21 281 -95 484 -164
204 -68 565 -190 804 -271 238 -81 437 -143 441 -138 7 8 190 543 190 556 0 4
-8 7 -18 7 -38 0 -142 62 -185 110 -76 84 -92 128 -92 250 0 96 2 110 28 158
60 114 154 183 278 203 62 10 107 5 205 -26 21 -6 27 10 121 292 l99 298 675
355 674 356 5 -846 c4 -683 7 -837 17 -805 7 22 215 794 463 1715 248 921 452
1681 455 1688 2 6 1 12 -3 11 -4 0 -171 -112 -372 -249z"/>
<path d="M2602 1988 l3 -103 1918 -2 1917 -3 0 105 0 105 -1920 0 -1921 0 3
-102z"/>
<path d="M2600 1505 l0 -245 75 0 75 0 0 101 c0 99 0 100 23 93 34 -10 40 -18
88 -109 l44 -85 86 0 86 0 -44 85 c-24 47 -57 95 -73 107 l-29 21 32 16 c80
40 102 151 41 212 -38 38 -100 49 -270 49 l-134 0 0 -245z m268 129 c26 -18
28 -41 5 -66 -12 -13 -30 -18 -70 -18 l-53 0 0 50 0 50 48 0 c27 0 57 -7 70
-16z"/>
<path d="M3240 1505 l0 -245 205 0 205 0 0 55 0 55 -130 0 -130 0 0 45 0 45
115 0 115 0 0 50 0 50 -115 0 -115 0 0 40 0 40 125 0 125 0 0 55 0 55 -200 0
-200 0 0 -245z"/>
<path d="M3969 1723 c-52 -136 -169 -451 -169 -456 0 -4 34 -7 75 -7 l74 0 11
40 11 41 86 -3 86 -3 12 -35 12 -35 76 -3 c43 -2 77 1 77 5 0 4 -40 114 -89
243 l-89 235 -81 3 c-81 3 -81 3 -92 -25z m121 -205 c11 -34 20 -66 20 -70 0
-5 -22 -8 -50 -8 -29 0 -50 4 -50 11 0 6 10 44 22 86 24 83 26 82 58 -19z"/>
<path d="M4488 1744 c-4 -3 -7 -114 -8 -245 l-1 -239 196 0 195 0 0 60 0 60
-115 0 c-112 0 -115 0 -115 23 -1 12 -2 94 -3 182 l-2 160 -70 3 c-39 1 -74 0
-77 -4z"/>
<path d="M5060 1505 l0 -245 75 0 75 0 0 245 0 245 -75 0 -75 0 0 -245z"/>
<path d="M5390 1690 l0 -59 78 -3 77 -3 3 -182 2 -183 75 0 75 0 0 185 0 185
75 0 75 0 0 60 0 60 -230 0 -230 0 0 -60z"/>
<path d="M6030 1505 l0 -245 205 0 205 0 0 55 0 55 -130 0 -130 0 0 45 0 44
118 3 117 3 3 48 3 47 -120 0 -121 0 0 40 0 39 128 3 127 3 0 50 0 50 -202 3
-203 2 0 -245z"/>
<path d="M3794 1060 c-60 -24 -73 -112 -25 -161 29 -29 60 -36 109 -23 19 6
22 13 22 55 0 48 -1 49 -30 49 -16 0 -30 -4 -30 -10 0 -5 12 -10 26 -10 23 0
25 -3 22 -32 -3 -31 -6 -33 -44 -36 -58 -4 -89 22 -89 78 0 70 51 95 130 66
17 -7 17 -5 -4 13 -24 22 -52 25 -87 11z"/>
<path d="M5223 1058 c-23 -11 -53 -64 -53 -93 0 -48 51 -95 104 -95 29 0 82
39 54 40 -9 0 -20 -4 -23 -10 -3 -5 -21 -10 -39 -10 -69 0 -102 85 -51 135 25
26 78 34 90 15 8 -12 25 -13 25 -2 0 11 -46 32 -68 31 -9 0 -27 -5 -39 -11z"/>
<path d="M3299 973 c-22 -47 -38 -91 -36 -97 2 -6 11 2 19 18 13 25 21 29 63
30 42 1 49 -2 62 -27 8 -16 17 -26 20 -23 7 7 -69 186 -80 186 -4 0 -26 -39
-48 -87z m74 10 l17 -43 -45 0 -44 0 21 50 c23 56 27 55 51 -7z"/>
<path d="M4248 1048 c-2 -7 -3 -49 -3 -93 l0 -80 58 -3 c35 -2 57 1 57 8 0 5
-22 10 -50 10 l-50 0 0 35 c0 35 0 35 45 35 25 0 45 5 45 10 0 6 -20 10 -45
10 -43 0 -45 1 -45 30 0 29 1 30 50 30 28 0 50 5 50 10 0 15 -107 13 -112 -2z"/>
<path d="M4692 963 l2 -98 3 83 c2 45 7 82 11 82 4 -1 31 -37 60 -80 30 -44
58 -80 63 -80 5 0 8 44 7 98 -2 96 -2 96 -5 20 -2 -43 -7 -78 -11 -78 -4 0
-29 33 -57 72 -27 39 -56 73 -62 76 -10 3 -13 -20 -11 -95z"/>
<path d="M5640 1054 c0 -3 14 -25 30 -49 23 -33 30 -55 30 -90 0 -28 4 -44 10
-40 6 3 10 23 10 44 0 24 10 54 30 84 32 51 34 57 23 57 -5 0 -18 -18 -31 -40
-12 -22 -27 -40 -32 -40 -5 0 -19 18 -31 40 -20 35 -39 52 -39 34z"/>
</g>
</svg>
